
nColumns=19
nRows=104
DataType=double
version=3
OpenSimVersion=4.4-2022-10-11-798caa840
endheader
time	ground_force_calcn_r_vx	ground_force_calcn_r_vy	ground_force_calcn_r_vz	ground_force_calcn_r_px	ground_force_calcn_r_py	ground_force_calcn_r_pz	ground_force_calcn_r_mx	ground_force_calcn_r_my	ground_force_calcn_r_mz	ground_force_calcn_l_vx	ground_force_calcn_l_vy	ground_force_calcn_l_vz	ground_force_calcn_l_px	ground_force_calcn_l_py	ground_force_calcn_l_pz	ground_force_calcn_l_mx	ground_force_calcn_l_my	ground_force_calcn_l_mz
0.85	-83.381	107.033	-1.25793	-0.100024	0	-0.404697	-0.0521626	0.0669588	-0.000786953	-105.812	160.913	19.467	-0.141997	0	-0.769035	0.308177	-0.468659	-0.0566976
0.86	-288.413	370.481	-25.1276	-0.107492	0	-0.401054	-0.389536	0.500378	-0.0339379	-304.417	502.532	65.5628	-0.147942	0	-0.774986	0.320522	-0.529118	-0.06903140000000001
0.87	-245.349	571.015	-67.9192	-0.157494	0	-0.401024	-0.633208	1.4737	-0.175289	-197.87	589.121	77.4211	-0.1637	0	-0.769633	0.5214220000000001	-1.55243	-0.204018
0.88	-3.48668	1151.9	-116.768	-0.232503	0	-0.402872	0.00490695	-1.62111	0.164333	-13.425	821.008	61.2266	-0.212848	0	-0.759705	-0.0192058	1.17453	0.08759069999999999
0.89	87.2591	1417.11	-125.915	-0.246772	0	-0.405106	-0.315715	-5.12728	0.455578	43.2449	1243.12	67.37430000000001	-0.245338	0	-0.754154	0.124078	3.56676	0.19331
0.9	-185.053	966.9930000000001	-85.3888	-0.213371	0	-0.405952	0.843066	-4.40543	0.389015	-110.27	1160.38	83.25020000000001	-0.237047	0	-0.754876	-0.344147	3.62147	0.259819
0.91	-341.259	628.312	-62.7749	-0.159415	0	-0.406986	0.850925	-1.56669	0.156528	-254.922	854.829	80.04040000000001	-0.206987	0	-0.757394	-0.631941	2.11909	0.198417
0.92	-291.652	539.788	-53.4572	-0.142157	0	-0.40771	0.9746010000000001	-1.80379	0.178636	-231.587	727.963	71.068	-0.190411	0	-0.758683	-0.694587	2.18334	0.21315
0.93	-222.519	564.971	-42.0572	-0.15067	0	-0.408508	1.54262	-3.91668	0.291563	-179.723	729.192	69.0449	-0.188928	0	-0.758784	-0.763424	3.09745	0.293288
0.9399999999999999	-188.464	575.6	-35.352	-0.153175	0	-0.408962	1.67258	-5.10832	0.313742	-158.438	728.947	63.4579	-0.186393	0	-0.758729	-0.905188	4.16462	0.362548
0.95	-167.793	558.535	-42.4264	-0.150718	0	-0.408165	1.40416	-4.67405	0.355042	-143.424	697.961	59.5401	-0.18157	0	-0.759066	-0.982454	4.78103	0.40785
0.96	-151.606	558.0940000000001	-50.6757	-0.152269	0	-0.407579	1.0802	-3.97643	0.361065	-132.231	663.074	59.4428	-0.177601	0	-0.759616	-0.938619	4.7067	0.421943
0.97	-135.056	560.282	-48.2881	-0.1564	0	-0.407877	0.985154	-4.08693	0.352233	-123.091	630.3579999999999	60.0179	-0.175186	0	-0.759837	-0.826152	4.23078	0.402823
0.98	-119.545	552.192	-38.9888	-0.160394	0	-0.408562	1.01316	-4.67992	0.330436	-114.899	605.816	57.7569	-0.174325	0	-0.759638	-0.771042	4.0654	0.387584
0.99	-107.756	537.8099999999999	-32.9409	-0.163751	0	-0.408819	0.996325	-4.97265	0.304575	-110.596	598.961	56.4987	-0.175029	0	-0.759472	-0.7738429999999999	4.19093	0.395321
1	-103.463	525.654	-30.5371	-0.166656	0	-0.408557	1.01699	-5.16696	0.300167	-109.744	612.314	58.5438	-0.177859	0	-0.759387	-0.777774	4.33958	0.41491
1.01	-103.646	516.676	-26.5037	-0.169346	0	-0.408207	1.14167	-5.69125	0.291941	-101.283	637.079	58.1932	-0.184123	0	-0.7584109999999999	-0.750485	4.72062	0.431199
1.02	-102.897	506.289	-24.6839	-0.171753	0	-0.407539	1.2088	-5.94774	0.289979	-81.4665	660.616	54.0911	-0.193524	0	-0.756447	-0.640541	5.19418	0.425298
1.03	-97.4641	493.99	-28.8689	-0.174642	0	-0.406335	1.08342	-5.49125	0.320911	-59.6303	668.682	51.8515	-0.202591	0	-0.754758	-0.456088	5.11448	0.396592
1.04	-87.101	481.772	-33.5407	-0.178628	0	-0.40538	0.871962	-4.82298	0.335774	-45.8134	654.6660000000001	50.1604	-0.208855	0	-0.753735	-0.335724	4.79745	0.36758
1.05	-74.7698	473.904	-33.7191	-0.1839	0	-0.405087	0.71812	-4.55157	0.323852	-43.2993	625.736	47.1471	-0.212265	0	-0.753096	-0.324171	4.68474	0.352979
1.06	-62.66	469.152	-30.2901	-0.189838	0	-0.405493	0.620694	-4.6473	0.300046	-45.6894	596.1420000000001	45.8552	-0.214719	0	-0.752754	-0.350761	4.57662	0.352033
1.07	-52.4176	459.646	-26.8248	-0.194947	0	-0.405882	0.541959	-4.75239	0.277348	-43.0959	571.192	44.7683	-0.217957	0	-0.752205	-0.337784	4.47697	0.350892
1.08	-44.9343	441.206	-23.7486	-0.198669	0	-0.406008	0.481963	-4.73235	0.254727	-36.8292	549.865	39.8525	-0.222081	0	-0.750972	-0.30309	4.52518	0.327971
1.09	-39.3277	415.744	-19.0102	-0.201461	0	-0.406152	0.447851	-4.73437	0.216482	-31.2924	533.755	32.4113	-0.226563	0	-0.749368	-0.274483	4.68187	0.284299
1.1	-34.1903	386.299	-13.1374	-0.203917	0	-0.406647	0.412234	-4.65762	0.158397	-25.3131	521.049	27.3871	-0.23121	0	-0.748008	-0.228062	4.69447	0.246749
1.11	-27.7485	357.503	-8.144130000000001	-0.206688	0	-0.407276	0.33866	-4.36319	0.0993959	-18.3532	508.135	26.3554	-0.235592	0	-0.747242	-0.166767	4.61719	0.239479
1.12	-19.3193	330.494	-4.50563	-0.210286	0	-0.408054	0.229482	-3.92573	0.0535195	-10.9096	493.788	26.6155	-0.23983	0	-0.746705	-0.104547	4.73197	0.255056
1.13	-9.796419999999999	306.117	-0.926569	-0.214896	0	-0.408997	0.11155	-3.48568	0.0105506	-3.30739	479.109	26.2424	-0.244041	0	-0.746095	-0.0349586	5.0641	0.277378
1.14	-0.556635	288.267	2.86308	-0.220454	0	-0.410005	0.00611914	-3.16894	-0.031474	3.26621	466.334	26.5096	-0.24811	0	-0.745799	0.0368558	5.26211	0.299134
1.15	7.34545	279.818	5.52981	-0.226675	0	-0.41102	-0.0807286	-3.07529	-0.0607743	7.67947	455.38	28.1728	-0.251812	0	-0.745634	0.08790480000000001	5.2126	0.322487
1.16	14.3628	276.328	6.58305	-0.232628	0	-0.411714	-0.158571	-3.05075	-0.0726792	12.116	444.787	28.5436	-0.255597	0	-0.745116	0.139254	5.1121	0.328062
1.17	20.3537	272.912	7.7064	-0.237945	0	-0.412248	-0.219215	-2.93934	-0.083	19.3926	437.069	26.3198	-0.259575	0	-0.744309	0.229008	5.16135	0.310811
1.18	24.8848	272.305	10.0895	-0.242801	0	-0.412844	-0.256485	-2.80662	-0.103991	28.7394	435.023	24.9662	-0.263652	0	-0.743575	0.34828	5.27184	0.302554
1.19	31.028	275.548	12.5853	-0.24742	0	-0.413628	-0.30382	-2.6981	-0.123232	37.3671	439.104	26.6624	-0.267099	0	-0.743376	0.438964	5.15831	0.313213
1.2	40.5172	281.908	12.84	-0.251639	0	-0.414008	-0.373531	-2.59893	-0.118372	44.7314	444.723	29.5996	-0.269561	0	-0.743408	0.490673	4.8783	0.324687
1.21	50.1842	290.808	10.1267	-0.254199	0	-0.413401	-0.429309	-2.48777	-0.0866304	52.0331	449.177	31.3698	-0.270978	0	-0.743549	0.523634	4.52029	0.315689
1.22	56.0161	301.572	7.20892	-0.254351	0	-0.41253	-0.438949	-2.36316	-0.0564899	57.7782	454.878	32.5596	-0.271242	0	-0.743696	0.530317	4.1751	0.298849
1.23	57.3929	316.892	4.56303	-0.251797	0	-0.412042	-0.441294	-2.43658	-0.0350851	59.799	462.325	35.0356	-0.270031	0	-0.744181	0.494854	3.82588	0.28993
1.24	56.5678	341.451	-0.610026	-0.245462	0	-0.411023	-0.455803	-2.75129	0.00491537	59.7213	472.996	39.5013	-0.266348	0	-0.745461	0.434922	3.44461	0.287669
1.25	52.9462	371.738	-7.75779	-0.234533	0	-0.409491	-0.440823	-3.09504	0.0645902	56.8216	486.107	45.8976	-0.259283	0	-0.747344	0.35312	3.02094	0.285233
1.26	44.4054	401.779	-14.3495	-0.22002	0	-0.408264	-0.387135	-3.50279	0.125102	47.9071	498.446	51.5612	-0.24874	0	-0.749256	0.249399	2.59485	0.268421
1.27	31.0091	432.946	-21.2547	-0.204426	0	-0.40713	-0.281851	-3.93518	0.19319	36.9372	511.352	55.7733	-0.236829	0	-0.751104	0.157785	2.18435	0.238247
1.28	14.1359	464.902	-29.5733	-0.189994	0	-0.405841	-0.130063	-4.27751	0.272101	26.4802	524.682	60.4468	-0.22524	0	-0.752936	0.0885097	1.75374	0.202043
1.29	-2.555	496.624	-38.9563	-0.17767	0	-0.404385	0.0226207	-4.39686	0.344899	15.489	537.207	65.48609999999999	-0.214599	0	-0.7546	0.0369868	1.28282	0.156377
1.3	-16.7186	528.154	-48.5395	-0.167551	0	-0.403112	0.135895	-4.29302	0.394546	5.68722	551.398	69.633	-0.205135	0	-0.755914	0.009158289999999999	0.8879320000000001	0.112132
1.31	-28.6943	558.35	-55.6643	-0.159309	0	-0.40242	0.216489	-4.21257	0.41997	-1.96788	569.139	72.5506	-0.197083	0	-0.756786	-0.00247932	0.717054	0.0914059
1.32	-38.85	585.912	-59.9266	-0.15268	0	-0.402225	0.283315	-4.27279	0.437017	-10.9907	585.146	74.70350000000001	-0.189866	0	-0.757333	-0.0134993	0.718704	0.0917545
1.33	-48.927	610.002	-61.7548	-0.147246	0	-0.40218	0.357635	-4.45884	0.4514	-22.8689	596.7140000000001	76.5321	-0.183383	0	-0.757918	-0.0283458	0.739623	0.094861
1.34	-58.8488	630.947	-60.3682	-0.14304	0	-0.402421	0.454584	-4.87382	0.466321	-34.0814	603.582	77.1101	-0.177778	0	-0.7585809999999999	-0.039738	0.7037600000000001	0.0899083
1.35	-67.1095	648.888	-58.44	-0.139853	0	-0.402667	0.54777	-5.29644	0.477007	-42.5457	606.981	76.2191	-0.173273	0	-0.758952	-0.0424422	0.605503	0.07603360000000001
1.36	-72.1718	663.8869999999999	-57.9747	-0.13719	0	-0.402824	0.594795	-5.47135	0.477792	-47.4423	605.357	73.6292	-0.169853	0	-0.759042	-0.0430655	0.5495100000000001	0.06683649999999999
1.37	-75.39100000000001	674.652	-58.606	-0.134547	0	-0.402894	0.6010760000000001	-5.37885	0.467252	-50.7379	593.328	69.3451	-0.166525	0	-0.759202	-0.0418884	0.489842	0.0572502
1.38	-80.55840000000001	682.349	-58.9422	-0.131911	0	-0.402848	0.613177	-5.19376	0.448644	-55.0849	572.329	64.8015	-0.162832	0	-0.759621	-0.033831	0.351502	0.0397985
1.39	-87.6798	687.327	-57.5538	-0.129345	0	-0.40286	0.640877	-5.02388	0.420678	-59.9511	543.848	59.3953	-0.159209	0	-0.76032	-0.0273466	0.248076	0.0270931
1.4	-94.7158	690.251	-54.2431	-0.127031	0	-0.40296	0.679764	-4.95385	0.389297	-61.3944	501.56	51.536	-0.155629	0	-0.7609860000000001	-0.0325798	0.26616	0.0273483
1.41	-101.319	691.127	-50.8525	-0.125189	0	-0.402988	0.707704	-4.82745	0.355199	-57.9593	441.242	41.548	-0.151662	0	-0.761431	-0.0454418	0.345947	0.0325749
1.42	-106.599	687.641	-49.9462	-0.123699	0	-0.402759	0.670882	-4.32768	0.314337	-47.2776	363.062	29.8223	-0.147838	0	-0.761864	-0.0520511	0.39972	0.0328334
1.43	-108.948	676.952	-51.7433	-0.122345	0	-0.40215	0.54097	-3.36133	0.256926	-29.881	267.164	17.316	-0.14388	0	-0.761951	-0.0484452	0.433146	0.028074
1.44	-106.692	654.508	-53.7987	-0.121119	0	-0.40131	0.342674	-2.10216	0.172792	-14.3182	156.629	5.7881	-0.137899	0	-0.760605	-0.0425262	0.4652	0.0171911
1.45	-96.5568	612.917	-53.4645	-0.119832	0	-0.400433	0.126745	-0.804547	0.0701803	-6.16566	51.9894	-0.0831407	-0.118817	0	-0.749316	-0.0373156	0.314649	-0.000503182
1.46	-75.3156	546.627	-49.7079	-0.118315	0	-0.399276	-0.0251762	0.182724	-0.0166161	0	0	0	0	0	0	0	0	0
1.47	-45.1963	456.824	-42.9041	-0.116752	0	-0.397598	-0.0590081	0.596427	-0.0560154	0	0	0	0	0	0	0	0	0
1.48	-12.7462	342.425	-31.4001	-0.115107	0	-0.395305	-0.0119204	0.320239	-0.0293657	0	0	0	0	0	0	0	0	0
1.49	11.6202	206.77	-14.9785	-0.112329	0	-0.393566	-0.0152935	-0.272132	0.0197134	0	0	0	0	0	0	0	0	0
1.5	19.9932	78.9134	-2.01255	-0.106992	0	-0.395821	-0.115099	-0.454297	0.0115861	0	0	0	0	0	0	0	0	0
1.51	0	0	0	0	0	0	0	0	0	0	0	0	0	0	0	0	0	0
1.52	0	0	0	0	0	0	0	0	0	0	0	0	0	0	0	0	0	0
1.53	0	0	0	0	0	0	0	0	0	0	0	0	0	0	0	0	0	0
1.54	0	0	0	0	0	0	0	0	0	0	0	0	0	0	0	0	0	0
1.55	0	0	0	0	0	0	0	0	0	0	0	0	0	0	0	0	0	0
1.56	0	0	0	0	0	0	0	0	0	0	0	0	0	0	0	0	0	0
1.57	0	0	0	0	0	0	0	0	0	0	0	0	0	0	0	0	0	0
1.58	0	0	0	0	0	0	0	0	0	0	0	0	0	0	0	0	0	0
1.59	0	0	0	0	0	0	0	0	0	0	0	0	0	0	0	0	0	0
1.6	0	0	0	0	0	0	0	0	0	0	0	0	0	0	0	0	0	0
1.61	0	0	0	0	0	0	0	0	0	0	0	0	0	0	0	0	0	0
1.62	0	0	0	0	0	0	0	0	0	0	0	0	0	0	0	0	0	0
1.63	0	0	0	0	0	0	0	0	0	0	0	0	0	0	0	0	0	0
1.64	0	0	0	0	0	0	0	0	0	0	0	0	0	0	0	0	0	0
1.65	0	0	0	0	0	0	0	0	0	0	0	0	0	0	0	0	0	0
1.66	0	0	0	0	0	0	0	0	0	0	0	0	0	0	0	0	0	0
1.67	0	0	0	0	0	0	0	0	0	0	0	0	0	0	0	0	0	0
1.68	0	0	0	0	0	0	0	0	0	0	0	0	0	0	0	0	0	0
1.69	0	0	0	0	0	0	0	0	0	0	0	0	0	0	0	0	0	0
1.7	0	0	0	0	0	0	0	0	0	0	0	0	0	0	0	0	0	0
1.71	0	0	0	0	0	0	0	0	0	0	0	0	0	0	0	0	0	0
1.72	0	0	0	0	0	0	0	0	0	0	0	0	0	0	0	0	0	0
1.73	0	0	0	0	0	0	0	0	0	0	0	0	0	0	0	0	0	0
1.74	0	0	0	0	0	0	0	0	0	0	0	0	0	0	0	0	0	0
1.75	0	0	0	0	0	0	0	0	0	0	0	0	0	0	0	0	0	0
1.76	0	0	0	0	0	0	0	0	0	0	0	0	0	0	0	0	0	0
1.77	0	0	0	0	0	0	0	0	0	0	0	0	0	0	0	0	0	0
1.78	0	0	0	0	0	0	0	0	0	0	0	0	0	0	0	0	0	0
1.79	0	0	0	0	0	0	0	0	0	0	0	0	0	0	0	0	0	0
1.8	0	0	0	0	0	0	0	0	0	0	0	0	0	0	0	0	0	0
1.81	0	0	0	0	0	0	0	0	0	0	0	0	0	0	0	0	0	0
1.82	0	0	0	0	0	0	0	0	0	0	0	0	0	0	0	0	0	0
1.83	0	0	0	0	0	0	0	0	0	0	0	0	0	0	0	0	0	0
1.84	0	0	0	0	0	0	0	0	0	0	0	0	0	0	0	0	0	0
1.85	0	0	0	0	0	0	0	0	0	0	0	0	0	0	0	0	0	0
1.86	-24.6434	112.377	-3.46634	-0.107476	0	-0.309751	-0.0588541	0.268382	-0.0082784	0	0	0	0	0	0	0	0	0
1.87	-59.3569	279.793	-28.4791	-0.111979	0	-0.308224	-0.170846	0.805325	-0.081971	0	0	0	0	0	0	0	0	0
1.88	-4.20112	398.339	-46.3132	-0.119044	0	-0.30812	-0.0196485	1.86302	-0.216606	0	0	0	0	0	0	0	0	0
